<svg width="24" height="24" viewBox="0 0 24 24" fill="none" xmlns="http://www.w3.org/2000/svg">
<mask id="mask0_334_3975" style="mask-type:alpha" maskUnits="userSpaceOnUse" x="0" y="0" width="24" height="24">
<rect width="24" height="24" fill="#D9D9D9"/>
</mask>
<g mask="url(#mask0_334_3975)">
<path d="M12.925 11.0501L9.03075 7.15587L10.1 6.11162L12.925 8.93662L18.6 3.28662L19.6443 4.33087L12.925 11.0501ZM6.702 18.5771L13.9595 20.6309L19.9288 18.7809C19.8776 18.554 19.7712 18.38 19.6095 18.2589C19.448 18.1377 19.2673 18.0771 19.0673 18.0771H14.1713C13.7341 18.0771 13.3629 18.0605 13.0578 18.0271C12.7526 17.9938 12.4391 17.9207 12.1173 17.8079L9.85975 17.0616L10.3038 15.5924L12.3288 16.2964C12.6314 16.3989 12.9808 16.4687 13.377 16.5059C13.7732 16.543 14.3366 16.5668 15.0673 16.5771C15.0673 16.3296 15.0115 16.1161 14.9 15.9366C14.7885 15.7571 14.6417 15.636 14.4595 15.5731L8.65775 13.4424C8.63842 13.436 8.62075 13.4313 8.60475 13.4281C8.58875 13.4248 8.57117 13.4231 8.552 13.4231H6.702V18.5771ZM1.702 21.5001V11.9234H8.54225C8.64609 11.9234 8.75159 11.9342 8.85875 11.9559C8.96575 11.9777 9.066 12.0053 9.1595 12.0386L14.9865 14.1849C15.4403 14.3527 15.8173 14.6498 16.1173 15.0761C16.4173 15.5025 16.5673 16.0028 16.5673 16.5771H19.0673C19.7853 16.5771 20.3702 16.8089 20.822 17.2724C21.274 17.7357 21.5 18.3373 21.5 19.0771V19.8846L14.0095 22.2116L6.702 20.1271V21.5001H1.702ZM3.202 20.0001H5.202V13.4231H3.202V20.0001Z" fill="#792CA2"/>
</g>
</svg>
