<svg width="506" height="190" viewBox="0 0 506 190" fill="none" xmlns="http://www.w3.org/2000/svg">
  <defs>
    
    <linearGradient id="paint0_linear" x1="504.506" y1="-1.70165" x2="327.087" y2="214.144" gradientUnits="userSpaceOnUse">
      <stop stop-color="#8B08DB" stop-opacity="0"/>
      <stop offset="1" stop-color="#8B08DB"/>
    </linearGradient>
    <linearGradient id="paint1_linear" x1="-3.31685" y1="-0.392565" x2="170.612" y2="214.553" gradientUnits="userSpaceOnUse">
      <stop stop-color="#349DE4" stop-opacity="0"/>
      <stop offset="1" stop-color="#349DE4"/>
    </linearGradient>
    <linearGradient id="paint2_linear" x1="335.814" y1="4.95944" x2="286.428" y2="176.189" gradientUnits="userSpaceOnUse">
      <stop stop-color="#E6A08E" stop-opacity="0"/>
      <stop offset="1" stop-color="#E6A08E"/>
    </linearGradient>
    <linearGradient id="paint3_linear" x1="166.788" y1="-0.684985" x2="214.227" y2="175.971" gradientUnits="userSpaceOnUse">
      <stop stop-color="#E8B126" stop-opacity="0"/>
      <stop offset="1" stop-color="#E8B126"/>
    </linearGradient>
    
    <filter id="blur1" x="-50%" y="-50%" width="200%" height="200%">
      <feGaussianBlur in="SourceGraphic" stdDeviation="2"/>
    </filter>
    
    <path id="path1" d="M504.506 1.39307 C496.184 42.8277 434.723 64.3671 405.033 69.9575 C286.966 93.6344 263.951 144.935 267.202 167.625"/>
    <path id="path2" d="M1.29102 1.39307 C9.44347 42.8277 69.6527 64.3671 98.7382 69.9575 C214.401 93.6344 236.947 144.935 233.763 167.625"/>
    <path id="path3" d="M335.814 1.96582 C332.941 32.482 331.983 44.1072 289.846 80.4359 C256.137 109.499 253.775 150.671 256.807 167.625"/>
    <path id="path4" d="M166.788 1.96582 C169.609 32.482 170.549 44.1072 211.92 80.4359 C245.016 109.499 247.335 150.671 244.358 167.625"/>
  </defs>

  <path d="M267.202 167.625C263.951 144.935 286.966 93.6344 405.033 69.9575C434.723 64.3671 496.184 42.8277 504.506 1.39307" 
        stroke="url(#paint0_linear)" stroke-width="2" stroke-linecap="round"/>
  <path d="M233.763 167.625C236.947 144.935 214.401 93.6344 98.7382 69.9575C69.6527 64.3671 9.44347 42.8277 1.29102 1.39307" 
        stroke="url(#paint1_linear)" stroke-width="2" stroke-linecap="round"/>
  <path d="M256.807 167.625C253.775 150.671 256.137 109.499 289.846 80.4359C331.983 44.1072 332.941 32.482 335.814 1.96582" 
        stroke="url(#paint2_linear)" stroke-width="2" stroke-linecap="round"/>
  <path d="M244.358 167.625C247.335 150.671 245.016 109.499 211.92 80.4359C170.549 44.1072 169.609 32.482 166.788 1.96582" 
        stroke="url(#paint3_linear)" stroke-width="2" stroke-linecap="round"/>

  <!-- Badge with solid stroke -->
 

  <g>
    <circle r="4" fill="#FFFFFF">
      <animateMotion dur="3s" repeatCount="indefinite" calcMode="spline" 
        keySplines="0.4 0 0.2 1"
        keyPoints="0;1" keyTimes="0;1">
        <mpath href="#path1"/>
      </animateMotion>
      <animate attributeName="opacity" 
        values="0;0.8;0.8;0" 
        keyTimes="0;0.1;0.7;1"
        dur="3s" 
        repeatCount="indefinite"/>
    </circle>

    <circle r="4" fill="#FFFFFF">
      <animateMotion dur="3s" begin="0.5s" repeatCount="indefinite" calcMode="spline"
        keySplines="0.4 0 0.2 1"
        keyPoints="0;1" keyTimes="0;1">
        <mpath href="#path2"/>
      </animateMotion>
      <animate attributeName="opacity" 
        values="0;0.8;0.8;0" 
        keyTimes="0;0.1;0.7;1"
        dur="3s" 
        begin="0.5s"
        repeatCount="indefinite"/>
    </circle>

    <circle r="4" fill="#FFFFFF">
      <animateMotion dur="3s" begin="1s" repeatCount="indefinite" calcMode="spline"
        keySplines="0.4 0 0.2 1"
        keyPoints="0;1" keyTimes="0;1">
        <mpath href="#path3"/>
      </animateMotion>
      <animate attributeName="opacity" 
        values="0;0.8;0.8;0" 
        keyTimes="0;0.1;0.7;1"
        dur="3s" 
        begin="1s"
        repeatCount="indefinite"/>
    </circle>

    <circle r="4" fill="#FFFFFF">
      <animateMotion dur="3s" begin="1.5s" repeatCount="indefinite" calcMode="spline"
        keySplines="0.4 0 0.2 1"
        keyPoints="0;1" keyTimes="0;1">
        <mpath href="#path4"/>
      </animateMotion>
      <animate attributeName="opacity" 
        values="0;0.8;0.8;0" 
        keyTimes="0;0.1;0.7;1"
        dur="3s" 
        begin="1.5s"
        repeatCount="indefinite"/>
    </circle>
  </g>
   <g>
    <!-- Solid background -->
    <rect x="208" y="154" width="90" height="36" rx="8" fill="#DF7F2E"/>

    <!-- Text -->
    <text x="253" y="177" 
          text-anchor="middle" 
          font-family="Arial" 
          font-size="16" 
          fill="#FFFFFF">
      AgriGate
    </text>
  </g>
</svg>